<svg width="253" height="72" viewBox="0 0 253 72" fill="none" xmlns="http://www.w3.org/2000/svg">
<g clip-path="url(#clip0)">
<rect width="72" height="72" rx="36" fill="#F4F5F7"/>
<path d="M42 34H48L45 30L42 34ZM42 38H48L45 42L42 38Z" fill="#359B96"/>
<path d="M25 24H31V48H25C24.7348 48 24.4804 47.8946 24.2929 47.7071C24.1054 47.5196 24 47.2652 24 47V25C24 24.7348 24.1054 24.4804 24.2929 24.2929C24.4804 24.1054 24.7348 24 25 24Z" fill="#0C3E3B"/>
<path d="M33 24H39C39.2652 24 39.5196 24.1054 39.7071 24.2929C39.8946 24.4804 40 24.7348 40 25V47C40 47.2652 39.8946 47.5196 39.7071 47.7071C39.5196 47.8946 39.2652 48 39 48H33V24Z" fill="#F9F871"/>
<path d="M88 56.2431C88 56.2431 136.764 63.8916 172.025 57.6741C207.286 51.4565 250.493 32.5912 250.493 32.5912" stroke="#D9DBE1" stroke-width="2" stroke-linecap="round" stroke-dasharray="2 6"/>
</g>
<defs>
<clipPath id="clip0">
<rect width="252.417" height="72" fill="white"/>
</clipPath>
</defs>
</svg>
