<svg width="213" height="37" viewBox="0 0 213 37" fill="none" xmlns="http://www.w3.org/2000/svg">
<path d="M6.49845 3.4063C6.4467 1.75025 5.06226 0.449712 3.40621 0.501464C1.75016 0.553215 0.449627 1.93766 0.501379 3.5937L6.49845 3.4063ZM40.9999 32.5L41.172 29.5049L40.9999 32.5ZM209.5 35.5C211.157 35.5 212.5 34.1569 212.5 32.5C212.5 30.8431 211.157 29.5 209.5 29.5V35.5ZM0.501379 3.5937C0.53902 4.79822 0.48288 6.09113 0.425001 7.59032C0.368833 9.0452 0.313148 10.6615 0.385623 12.3113C0.531746 15.6377 1.20399 19.3294 3.59915 22.7749C8.36376 29.6288 18.9984 34.2405 40.8278 35.4951L41.172 29.5049C19.5015 28.2595 11.5528 23.7046 8.5257 19.3501C7.02503 17.1914 6.49935 14.7685 6.37984 12.048C6.3195 10.6744 6.36407 9.28423 6.42053 7.82179C6.47528 6.40366 6.54414 4.86845 6.49845 3.4063L0.501379 3.5937ZM40.8278 35.4951C68.3044 37.0742 205.158 35.5 209.5 35.5V29.5C204.842 29.5 68.423 31.0711 41.172 29.5049L40.8278 35.4951Z" fill="#F9F871"/>
</svg>
