<svg width="708" height="648" viewBox="0 0 708 648" fill="none" xmlns="http://www.w3.org/2000/svg">
<path fill-rule="evenodd" clip-rule="evenodd" d="M676.949 361.316C661.703 431.461 597.097 475.78 543.605 523.646C496.655 565.657 449.615 614.61 386.923 620.837C326.881 626.8 279.834 575.403 222.875 555.5C159.26 533.27 72.8613 552.925 34.3423 497.632C-3.96405 442.644 23.9997 365.101 46.1836 301.864C64.5802 249.423 114.496 219.353 147.619 174.728C185.247 124.032 192.25 39.7656 253.131 23.0477C313.631 6.43443 360.374 80.0099 419.853 99.973C488.183 122.907 574.715 96.566 625.261 147.947C677.869 201.424 692.881 288.012 676.949 361.316Z" fill="#E8E8E8"/>
</svg>
